<svg width="158" height="26" viewBox="0 0 158 26" fill="none" xmlns="http://www.w3.org/2000/svg">
<path d="M7.776 25L0.671997 1.64H6.08L11.712 21.352L10.496 20.744H13.76L12.48 21.352L17.696 1.64H22.944L16.32 25H7.776ZM26.3243 25V7.464H31.4443V25H26.3243ZM23.9883 11.24V7.464H31.4443V11.24H23.9883ZM28.3083 5.736C27.3483 5.736 26.6336 5.49067 26.1643 5C25.7163 4.488 25.4923 3.848 25.4923 3.08C25.4923 2.29066 25.7163 1.65066 26.1643 1.16C26.6336 0.647998 27.3483 0.391998 28.3083 0.391998C29.2683 0.391998 29.9723 0.647998 30.4203 1.16C30.8896 1.65066 31.1243 2.29066 31.1243 3.08C31.1243 3.848 30.8896 4.488 30.4203 5C29.9723 5.49067 29.2683 5.736 28.3083 5.736ZM43.4118 25.576C42.1744 25.576 41.0438 25.352 40.0198 24.904C39.0171 24.456 38.1424 23.8373 37.3958 23.048C36.6491 22.2373 36.0731 21.288 35.6678 20.2C35.2838 19.112 35.0918 17.9387 35.0918 16.68V15.944C35.0918 14.6853 35.2731 13.512 35.6358 12.424C36.0198 11.336 36.5638 10.3867 37.2678 9.576C37.9931 8.744 38.8571 8.104 39.8598 7.656C40.8624 7.18667 41.9824 6.952 43.2198 6.952C44.6278 6.952 45.8438 7.26133 46.8678 7.88C47.8918 8.47733 48.6918 9.37333 49.2678 10.568C49.8438 11.7413 50.1638 13.192 50.2278 14.92L48.8838 13.672V1.64H54.0358V25H49.9718V17.736H50.6758C50.6118 19.4 50.2598 20.8187 49.6198 21.992C49.0011 23.1653 48.1584 24.0613 47.0918 24.68C46.0251 25.2773 44.7984 25.576 43.4118 25.576ZM44.6918 21.288C45.4811 21.288 46.1958 21.1173 46.8358 20.776C47.4971 20.4133 48.0198 19.8907 48.4038 19.208C48.8091 18.5253 49.0118 17.704 49.0118 16.744V15.56C49.0118 14.6213 48.8091 13.832 48.4038 13.192C47.9984 12.552 47.4651 12.0613 46.8038 11.72C46.1424 11.3787 45.4278 11.208 44.6598 11.208C43.8064 11.208 43.0384 11.432 42.3558 11.88C41.6944 12.3067 41.1718 12.904 40.7878 13.672C40.4038 14.4187 40.2118 15.2933 40.2118 16.296C40.2118 17.32 40.4038 18.2053 40.7878 18.952C41.1718 19.6987 41.7051 20.2747 42.3878 20.68C43.0704 21.0853 43.8384 21.288 44.6918 21.288ZM66.7118 25.608C65.2184 25.608 63.8958 25.352 62.7438 24.84C61.6131 24.328 60.6638 23.6453 59.8958 22.792C59.1491 21.9173 58.5731 20.9467 58.1678 19.88C57.7838 18.792 57.5918 17.6827 57.5918 16.552V15.912C57.5918 14.7387 57.7838 13.6187 58.1678 12.552C58.5731 11.464 59.1491 10.4933 59.8958 9.64C60.6424 8.78667 61.5704 8.11467 62.6798 7.624C63.8104 7.112 65.0904 6.856 66.5198 6.856C68.3971 6.856 69.9758 7.28267 71.2558 8.136C72.5571 8.968 73.5491 10.0667 74.2318 11.432C74.9144 12.776 75.2558 14.248 75.2558 15.848V17.576H59.7358V14.664H72.1518L70.4878 16.008C70.4878 14.9627 70.3384 14.0667 70.0398 13.32C69.7411 12.5733 69.2931 12.008 68.6958 11.624C68.1198 11.2187 67.3944 11.016 66.5198 11.016C65.6238 11.016 64.8664 11.2187 64.2478 11.624C63.6291 12.0293 63.1598 12.6267 62.8398 13.416C62.5198 14.184 62.3598 15.1333 62.3598 16.264C62.3598 17.3093 62.5091 18.2267 62.8078 19.016C63.1064 19.784 63.5758 20.3813 64.2158 20.808C64.8558 21.2347 65.6878 21.448 66.7118 21.448C67.6504 21.448 68.4184 21.2667 69.0158 20.904C69.6131 20.5413 70.0184 20.0933 70.2318 19.56H74.9358C74.6798 20.7333 74.1784 21.7787 73.4318 22.696C72.6851 23.6133 71.7464 24.328 70.6158 24.84C69.4851 25.352 68.1838 25.608 66.7118 25.608ZM87.1925 25.608C85.6565 25.608 84.2912 25.3733 83.0965 24.904C81.9018 24.4133 80.8885 23.752 80.0565 22.92C79.2458 22.088 78.6272 21.1387 78.2005 20.072C77.7738 18.984 77.5605 17.8427 77.5605 16.648V15.912C77.5605 14.696 77.7738 13.544 78.2005 12.456C78.6485 11.3467 79.2885 10.376 80.1205 9.544C80.9738 8.712 81.9978 8.06133 83.1925 7.592C84.3872 7.10133 85.7205 6.856 87.1925 6.856C88.7072 6.856 90.0512 7.10133 91.2245 7.592C92.4192 8.06133 93.4325 8.712 94.2645 9.544C95.0965 10.376 95.7365 11.3467 96.1845 12.456C96.6325 13.544 96.8565 14.696 96.8565 15.912V16.648C96.8565 17.8427 96.6432 18.984 96.2165 20.072C95.7898 21.1387 95.1605 22.088 94.3285 22.92C93.5178 23.752 92.5152 24.4133 91.3205 24.904C90.1258 25.3733 88.7498 25.608 87.1925 25.608ZM87.1925 21.288C88.1952 21.288 89.0272 21.0747 89.6885 20.648C90.3498 20.2213 90.8512 19.624 91.1925 18.856C91.5552 18.088 91.7365 17.2347 91.7365 16.296C91.7365 15.2933 91.5552 14.4187 91.1925 13.672C90.8298 12.904 90.3072 12.296 89.6245 11.848C88.9632 11.4 88.1525 11.176 87.1925 11.176C86.2538 11.176 85.4432 11.4 84.7605 11.848C84.0778 12.296 83.5552 12.904 83.1925 13.672C82.8512 14.4187 82.6805 15.2933 82.6805 16.296C82.6805 17.2347 82.8512 18.088 83.1925 18.856C83.5338 19.624 84.0458 20.2213 84.7285 20.648C85.4112 21.0747 86.2325 21.288 87.1925 21.288ZM100.718 25V1.64H105.966V25H100.718ZM105.326 25V20.392H115.118V25H105.326ZM119.106 25V7.464H124.226V25H119.106ZM116.77 11.24V7.464H124.226V11.24H116.77ZM121.09 5.736C120.13 5.736 119.415 5.49067 118.946 5C118.498 4.488 118.274 3.848 118.274 3.08C118.274 2.29066 118.498 1.65066 118.946 1.16C119.415 0.647998 120.13 0.391998 121.09 0.391998C122.05 0.391998 122.754 0.647998 123.202 1.16C123.671 1.65066 123.906 2.29066 123.906 3.08C123.906 3.848 123.671 4.488 123.202 5C122.754 5.49067 122.05 5.736 121.09 5.736ZM135.617 25.544C133.121 25.544 131.169 25.032 129.761 24.008C128.353 22.984 127.606 21.544 127.521 19.688H132.065C132.15 20.2427 132.481 20.744 133.057 21.192C133.654 21.6187 134.54 21.832 135.713 21.832C136.609 21.832 137.345 21.6827 137.921 21.384C138.518 21.064 138.817 20.616 138.817 20.04C138.817 19.528 138.593 19.1227 138.145 18.824C137.697 18.504 136.897 18.28 135.745 18.152L134.369 18.024C132.257 17.8107 130.668 17.224 129.601 16.264C128.556 15.304 128.033 14.0773 128.033 12.584C128.033 11.3467 128.342 10.312 128.961 9.48C129.58 8.648 130.433 8.01867 131.521 7.592C132.63 7.16533 133.889 6.952 135.297 6.952C137.558 6.952 139.382 7.45333 140.769 8.456C142.156 9.43733 142.881 10.8667 142.945 12.744H138.401C138.316 12.168 138.017 11.688 137.505 11.304C136.993 10.8987 136.236 10.696 135.233 10.696C134.444 10.696 133.814 10.8453 133.345 11.144C132.876 11.4427 132.641 11.848 132.641 12.36C132.641 12.8507 132.844 13.224 133.249 13.48C133.654 13.736 134.316 13.9173 135.233 14.024L136.609 14.152C138.764 14.3867 140.438 14.984 141.633 15.944C142.828 16.904 143.425 18.1947 143.425 19.816C143.425 20.9893 143.105 22.0133 142.465 22.888C141.825 23.7413 140.918 24.4027 139.745 24.872C138.572 25.32 137.196 25.544 135.617 25.544ZM154.71 25.224C152.94 25.224 151.51 25.0107 150.422 24.584C149.334 24.136 148.534 23.4 148.022 22.376C147.532 21.3307 147.286 19.9227 147.286 18.152V2.728H152.054V18.344C152.054 19.176 152.268 19.816 152.694 20.264C153.142 20.6907 153.772 20.904 154.582 20.904H157.174V25.224H154.71ZM144.63 11.208V7.464H157.174V11.208H144.63Z" fill="url(#paint0_linear_14305_21)"/>
<defs>
<linearGradient id="paint0_linear_14305_21" x1="172" y1="-5.99999" x2="56.8366" y2="97.3396" gradientUnits="userSpaceOnUse">
<stop stop-color="#82C041"/>
<stop offset="0.354167" stop-color="#6BC481"/>
<stop offset="1" stop-color="#40CBF6"/>
</linearGradient>
</defs>
</svg>
