<svg width="170" height="32" viewBox="0 0 170 32" fill="none" xmlns="http://www.w3.org/2000/svg">
<path d="M7.04 16.136L0.223999 1.64H5.6L10.496 12.488L9.568 12.2H12.256L11.264 12.488L15.68 1.64H20.768L14.496 16.136H7.04ZM8.192 25V15.4H13.344V25H8.192ZM31.2103 25.224C29.4396 25.224 28.0103 25.0107 26.9223 24.584C25.8343 24.136 25.0343 23.4 24.5223 22.376C24.0316 21.3307 23.7863 19.9227 23.7863 18.152V2.728H28.5543V18.344C28.5543 19.176 28.7676 19.816 29.1943 20.264C29.6423 20.6907 30.2716 20.904 31.0823 20.904H33.6743V25.224H31.2103ZM21.1303 11.208V7.464H33.6743V11.208H21.1303ZM37.4053 25V1.448H42.6533V25H37.4053ZM51.5813 25L44.7333 14.952H50.4933L57.6613 25H51.5813ZM41.2453 17.512V13.384H47.0053C47.7733 13.384 48.4346 13.2347 48.9893 12.936C49.5653 12.616 50.0026 12.1787 50.3013 11.624C50.6213 11.048 50.7812 10.3867 50.7812 9.64C50.7812 8.89333 50.6213 8.24267 50.3013 7.688C50.0026 7.112 49.5653 6.67467 48.9893 6.376C48.4346 6.056 47.7733 5.896 47.0053 5.896H41.2453V1.448H46.5893C48.5306 1.448 50.2159 1.74667 51.6453 2.344C53.0746 2.92 54.1733 3.784 54.9413 4.936C55.7093 6.088 56.0933 7.53867 56.0933 9.288V9.8C56.0933 11.528 55.6986 12.968 54.9093 14.12C54.1413 15.2507 53.0426 16.104 51.6133 16.68C50.2053 17.2347 48.5306 17.512 46.5893 17.512H41.2453ZM71.0843 25V19.816H70.2203V14.184C70.2203 13.288 70.0069 12.616 69.5803 12.168C69.1536 11.72 68.4709 11.496 67.5323 11.496C67.0629 11.496 66.4443 11.5067 65.6763 11.528C64.9083 11.5493 64.1189 11.5813 63.3083 11.624C62.4976 11.6667 61.7616 11.7093 61.1003 11.752V7.432C61.5909 7.38933 62.1669 7.34667 62.8283 7.304C63.4896 7.26133 64.1723 7.22933 64.8763 7.208C65.5803 7.18667 66.2416 7.176 66.8603 7.176C68.6523 7.176 70.1563 7.432 71.3723 7.944C72.6096 8.456 73.5483 9.23467 74.1883 10.28C74.8283 11.304 75.1483 12.6267 75.1483 14.248V25H71.0843ZM65.4843 25.448C64.2256 25.448 63.1163 25.224 62.1562 24.776C61.2176 24.328 60.4816 23.688 59.9483 22.856C59.4149 22.0027 59.1483 20.9893 59.1483 19.816C59.1483 18.536 59.4789 17.4907 60.1403 16.68C60.8016 15.848 61.7296 15.24 62.9243 14.856C64.1189 14.4507 65.4949 14.248 67.0523 14.248H70.7963V17.096H67.0203C66.1243 17.096 65.4309 17.32 64.9403 17.768C64.4709 18.1947 64.2363 18.7813 64.2363 19.528C64.2363 20.232 64.4709 20.808 64.9403 21.256C65.4309 21.6827 66.1243 21.896 67.0203 21.896C67.5963 21.896 68.1083 21.8 68.5563 21.608C69.0256 21.3947 69.4096 21.0427 69.7083 20.552C70.0069 20.0613 70.1776 19.3787 70.2203 18.504L71.4363 19.784C71.3296 21 71.0309 22.024 70.5403 22.856C70.0709 23.688 69.4096 24.328 68.5563 24.776C67.7243 25.224 66.7003 25.448 65.4843 25.448ZM79.4923 25V7.464H83.5563V14.984H83.2683C83.2683 13.192 83.4923 11.6987 83.9403 10.504C84.4096 9.30933 85.1136 8.41333 86.0523 7.816C86.9909 7.21867 88.1323 6.92 89.4763 6.92H89.7003C91.7483 6.92 93.3056 7.592 94.3723 8.936C95.4603 10.2587 96.0043 12.2747 96.0043 14.984V25H90.8843V14.696C90.8843 13.7573 90.6069 12.9893 90.0523 12.392C89.4976 11.7947 88.7509 11.496 87.8123 11.496C86.8523 11.496 86.0736 11.8053 85.4763 12.424C84.9003 13.0213 84.6123 13.8107 84.6123 14.792V25H79.4923ZM112.719 25L107.183 16.808H104.719L111.855 7.464H117.231L110.511 16.168L110.575 13.672L118.479 25H112.719ZM100.367 25V1.64H105.487V25H100.367ZM121.637 25V7.464H126.757V25H121.637ZM119.301 11.24V7.464H126.757V11.24H119.301ZM123.621 5.736C122.661 5.736 121.946 5.49067 121.477 5C121.029 4.488 120.805 3.848 120.805 3.08C120.805 2.29066 121.029 1.65066 121.477 1.16C121.946 0.647998 122.661 0.391998 123.621 0.391998C124.581 0.391998 125.285 0.647998 125.733 1.16C126.202 1.65066 126.437 2.29066 126.437 3.08C126.437 3.848 126.202 4.488 125.733 5C125.285 5.49067 124.581 5.736 123.621 5.736ZM131.492 25V7.464H135.556V14.984H135.268C135.268 13.192 135.492 11.6987 135.94 10.504C136.41 9.30933 137.114 8.41333 138.052 7.816C138.991 7.21867 140.132 6.92 141.476 6.92H141.7C143.748 6.92 145.306 7.592 146.372 8.936C147.46 10.2587 148.004 12.2747 148.004 14.984V25H142.884V14.696C142.884 13.7573 142.607 12.9893 142.052 12.392C141.498 11.7947 140.751 11.496 139.812 11.496C138.852 11.496 138.074 11.8053 137.476 12.424C136.9 13.0213 136.612 13.8107 136.612 14.792V25H131.492ZM159.279 31.976C158.426 31.976 157.551 31.944 156.655 31.88C155.759 31.816 154.938 31.7307 154.191 31.624V27.304C154.938 27.4107 155.759 27.496 156.655 27.56C157.573 27.6453 158.405 27.688 159.151 27.688C160.538 27.688 161.658 27.528 162.511 27.208C163.386 26.888 164.026 26.3973 164.431 25.736C164.837 25.096 165.039 24.264 165.039 23.24V19.752L165.967 17.704C165.925 19.2613 165.615 20.5947 165.039 21.704C164.485 22.8133 163.706 23.6667 162.703 24.264C161.701 24.84 160.506 25.128 159.119 25.128C157.925 25.128 156.837 24.9147 155.855 24.488C154.895 24.04 154.074 23.4213 153.391 22.632C152.709 21.8427 152.186 20.9253 151.823 19.88C151.461 18.8133 151.279 17.6613 151.279 16.424V15.688C151.279 14.4507 151.471 13.2987 151.855 12.232C152.239 11.1653 152.794 10.2373 153.519 9.448C154.245 8.65867 155.109 8.05067 156.111 7.624C157.114 7.176 158.223 6.952 159.439 6.952C160.847 6.952 162.063 7.26133 163.087 7.88C164.133 8.49867 164.954 9.40533 165.551 10.6C166.149 11.7947 166.469 13.2347 166.511 14.92L165.807 15.112V7.464H169.871V22.92C169.871 25.0747 169.487 26.8133 168.719 28.136C167.951 29.4587 166.778 30.4293 165.199 31.048C163.642 31.6667 161.669 31.976 159.279 31.976ZM160.719 20.808C161.509 20.808 162.223 20.6373 162.863 20.296C163.503 19.9333 164.005 19.4213 164.367 18.76C164.751 18.0987 164.943 17.2987 164.943 16.36V15.432C164.943 14.5147 164.741 13.7467 164.335 13.128C163.951 12.488 163.439 12.008 162.799 11.688C162.159 11.3467 161.477 11.176 160.751 11.176C159.898 11.176 159.141 11.3787 158.479 11.784C157.818 12.1893 157.306 12.7547 156.943 13.48C156.581 14.2053 156.399 15.0587 156.399 16.04C156.399 17.0427 156.581 17.9067 156.943 18.632C157.327 19.336 157.839 19.88 158.479 20.264C159.141 20.6267 159.887 20.808 160.719 20.808Z" fill="url(#paint0_linear_14304_18)"/>
<defs>
<linearGradient id="paint0_linear_14304_18" x1="172" y1="-5.99999" x2="56.8366" y2="97.3396" gradientUnits="userSpaceOnUse">
<stop stop-color="#82C041"/>
<stop offset="0.354167" stop-color="#6BC481"/>
<stop offset="1" stop-color="#40CBF6"/>
</linearGradient>
</defs>
</svg>
